<svg width="34" height="85" viewBox="0 0 34 85" fill="none" xmlns="http://www.w3.org/2000/svg">
<path fill-rule="evenodd" clip-rule="evenodd" d="M17.0734 66.9254C17.6054 64.8902 18.1605 62.8595 18.5879 60.8044C19.7441 55.2379 20.0457 49.6063 19.8365 43.9385C19.4872 34.2642 17.7889 24.8457 14.7648 15.6876C13.1308 10.7374 10.7545 6.20749 7.35399 2.25164C6.86054 1.68158 6.35547 1.1093 5.7444 0.651132C4.71345 -0.131143 3.28289 0.426647 3.00579 1.69237C2.97214 1.86909 2.97335 2.05245 3.10421 2.18723C4.07379 3.16536 4.49789 4.47913 5.06284 5.68543C8.22409 12.4158 10.0072 19.5552 10.9517 26.9257C11.7077 32.8197 12.125 38.7224 11.9089 44.6633C11.7431 49.0755 11.2823 53.4559 10.2826 57.7582C10.0773 58.647 9.79062 59.5202 9.53882 60.4001C9.29219 60.3043 9.29362 60.1703 9.27182 60.0318C8.97782 58.0348 8.46836 56.0943 7.88246 54.176C7.02593 51.3393 5.74602 48.7028 3.97117 46.3261C3.88455 46.212 3.80955 46.1 3.70682 46.0072C2.8418 45.049 2.24333 45.0938 1.47969 46.1326C1.07259 46.6899 0.97022 47.3541 0.860716 47.9925C0.149635 52.4229 -0.192299 56.8749 0.461508 61.3454C0.806646 63.7063 1.16116 66.0811 1.4692 68.4471C1.74342 70.6113 1.93182 72.7836 1.88601 74.9846C1.87578 75.5442 1.83069 76.0972 1.72751 76.6392C1.59069 77.3578 1.43063 78.072 1.32866 78.7973C1.15124 80.0454 1.55968 80.7458 2.67932 81.2519C3.45449 81.6071 4.21355 81.9835 4.98871 82.3387C5.15402 82.419 5.32157 82.4875 5.29506 82.69C5.17963 83.4859 5.75159 83.6437 6.28949 83.917C6.91586 84.2316 7.50006 84.1353 8.04555 83.7996C8.4247 83.5788 8.75209 83.2505 9.08436 82.9597C11.7126 80.6644 14.3314 78.3552 16.9597 76.0599C19.8048 73.5739 22.9638 71.5262 26.1933 69.614C28.3917 68.3112 30.4965 66.8685 32.6199 65.4537C33.2392 65.0467 33.4904 64.423 33.5395 63.7854C33.6185 62.7383 33.9478 61.6412 33.2937 60.6499C33.4503 59.7641 33.0482 58.9673 32.9058 58.1344C32.8408 57.7802 32.7436 57.4687 32.5606 57.1653C32.016 56.2314 31.3841 56.1355 30.4054 56.5963C27.8142 57.812 25.7359 59.7481 23.5336 61.5141C21.5091 63.1674 19.4548 64.8517 17.529 66.6825C17.4091 66.8062 17.3174 66.9718 17.0734 66.9254Z" fill="white"/>
</svg>
