<svg width="23" height="23" viewBox="0 0 23 23" fill="none" xmlns="http://www.w3.org/2000/svg">
<path d="M13.7012 11.5C13.7012 12.7157 12.7157 13.7012 11.5 13.7012C10.2843 13.7012 9.29883 12.7157 9.29883 11.5C9.29883 10.2843 10.2843 9.29883 11.5 9.29883C12.7157 9.29883 13.7012 10.2843 13.7012 11.5Z" fill="white"/>
<path d="M16.6478 7.60552C16.542 7.31879 16.3731 7.05927 16.1538 6.84624C15.9408 6.62689 15.6814 6.45808 15.3945 6.35227C15.1618 6.2619 14.8123 6.15434 14.1685 6.12503C13.472 6.09327 13.2632 6.08643 11.5 6.08643C9.73664 6.08643 9.52782 6.09309 8.83154 6.12486C8.18771 6.15434 7.83799 6.2619 7.60548 6.35227C7.31858 6.45808 7.05905 6.62689 6.8462 6.84624C6.62685 7.05927 6.45805 7.31862 6.35206 7.60552C6.26169 7.8382 6.15412 8.18793 6.12482 8.83175C6.09306 9.52804 6.08621 9.73685 6.08621 11.5002C6.08621 13.2634 6.09306 13.4722 6.12482 14.1687C6.15412 14.8125 6.26169 15.162 6.35206 15.3947C6.45805 15.6816 6.62668 15.941 6.84602 16.154C7.05905 16.3734 7.31841 16.5422 7.60531 16.648C7.83799 16.7385 8.18771 16.8461 8.83154 16.8754C9.52782 16.9072 9.73647 16.9138 11.4998 16.9138C13.2634 16.9138 13.4722 16.9072 14.1683 16.8754C14.8121 16.8461 15.1618 16.7385 15.3945 16.648C15.9704 16.4258 16.4256 15.9706 16.6478 15.3947C16.7381 15.162 16.8457 14.8125 16.8752 14.1687C16.9069 13.4722 16.9136 13.2634 16.9136 11.5002C16.9136 9.73685 16.9069 9.52804 16.8752 8.83175C16.8459 8.18793 16.7383 7.8382 16.6478 7.60552ZM11.5 14.8909C9.62714 14.8909 8.10892 13.3729 8.10892 11.5C8.10892 9.62718 9.62714 8.10914 11.5 8.10914C13.3727 8.10914 14.8909 9.62718 14.8909 11.5C14.8909 13.3729 13.3727 14.8909 11.5 14.8909ZM15.025 8.76752C14.5873 8.76752 14.2325 8.41271 14.2325 7.97507C14.2325 7.53744 14.5873 7.18262 15.025 7.18262C15.4626 7.18262 15.8174 7.53744 15.8174 7.97507C15.8172 8.41271 15.4626 8.76752 15.025 8.76752Z" fill="white"/>
<path d="M11.5 0C5.1497 0 0 5.1497 0 11.5C0 17.8503 5.1497 23 11.5 23C17.8503 23 23 17.8503 23 11.5C23 5.1497 17.8503 0 11.5 0ZM18.0637 14.2225C18.0317 14.9255 17.92 15.4054 17.7568 15.8255C17.4137 16.7125 16.7125 17.4137 15.8255 17.7568C15.4056 17.92 14.9255 18.0316 14.2227 18.0637C13.5185 18.0958 13.2935 18.1035 11.5002 18.1035C9.70663 18.1035 9.48185 18.0958 8.77749 18.0637C8.07471 18.0316 7.5946 17.92 7.17469 17.7568C6.73389 17.591 6.33486 17.3311 6.00497 16.995C5.66911 16.6653 5.40923 16.2661 5.2434 15.8255C5.08021 15.4056 4.96843 14.9255 4.93649 14.2227C4.90403 13.5183 4.89648 13.2934 4.89648 11.5C4.89648 9.70663 4.90403 9.48167 4.93632 8.77749C4.96825 8.07453 5.07986 7.5946 5.24305 7.17451C5.40887 6.73389 5.66893 6.33469 6.00497 6.00497C6.33469 5.66893 6.73389 5.40905 7.17451 5.24323C7.5946 5.08003 8.07453 4.96843 8.77749 4.93632C9.48167 4.90421 9.70663 4.89648 11.5 4.89648C13.2934 4.89648 13.5183 4.90421 14.2225 4.93649C14.9255 4.96843 15.4054 5.08003 15.8255 5.24305C16.2661 5.40887 16.6653 5.66893 16.9952 6.00497C17.3311 6.33486 17.5911 6.73389 17.7568 7.17451C17.9201 7.5946 18.0317 8.07453 18.0639 8.77749C18.096 9.48167 18.1035 9.70663 18.1035 11.5C18.1035 13.2934 18.096 13.5183 18.0637 14.2225Z" fill="white"/>
</svg>
