<svg width="50" height="50" viewBox="0 0 50 50" fill="none" xmlns="http://www.w3.org/2000/svg">
<circle cx="25" cy="25" r="25" fill="#345F4C"/>
<path d="M24.5 39C32.51 39 39 32.51 39 24.5C39 16.49 32.51 10 24.5 10C16.49 10 10 16.49 10 24.5C10 32.51 16.49 39 24.5 39ZM16.635 24.1858L30.6154 18.7955C31.2643 18.561 31.831 18.9538 31.6207 19.9349L31.6219 19.9337L29.2415 31.1483C29.0651 31.9433 28.5926 32.1367 27.9317 31.7621L24.3067 29.0905L22.5582 30.7749C22.3649 30.9682 22.2018 31.1313 21.8272 31.1313L22.0845 27.4423L28.8029 21.3728C29.0953 21.1155 28.7376 20.9705 28.3522 21.2266L20.0497 26.4539L16.4706 25.3374C15.6937 25.0909 15.6768 24.5604 16.635 24.1858Z" fill="white"/>
</svg>
