<svg width="50" height="50" viewBox="0 0 50 50" fill="none" xmlns="http://www.w3.org/2000/svg">
<circle cx="25" cy="25" r="25" fill="#345F4C"/>
<path d="M27.2754 24.5C27.2754 26.0328 26.0328 27.2754 24.5 27.2754C22.9672 27.2754 21.7246 26.0328 21.7246 24.5C21.7246 22.9672 22.9672 21.7246 24.5 21.7246C26.0328 21.7246 27.2754 22.9672 27.2754 24.5Z" fill="white"/>
<path d="M30.9906 19.5895C30.8572 19.228 30.6444 18.9008 30.3678 18.6322C30.0992 18.3556 29.7722 18.1427 29.4104 18.0093C29.1171 17.8954 28.6763 17.7598 27.8646 17.7228C26.9864 17.6828 26.7231 17.6741 24.5 17.6741C22.2766 17.6741 22.0133 17.6825 21.1354 17.7226C20.3236 17.7598 19.8827 17.8954 19.5895 18.0093C19.2277 18.1427 18.9005 18.3556 18.6321 18.6322C18.3556 18.9008 18.1427 19.2278 18.0091 19.5895C17.8951 19.8829 17.7595 20.3239 17.7226 21.1356C17.6825 22.0136 17.6739 22.2768 17.6739 24.5002C17.6739 26.7234 17.6825 26.9866 17.7226 27.8648C17.7595 28.6766 17.8951 29.1173 18.0091 29.4107C18.1427 29.7724 18.3553 30.0995 18.6319 30.3681C18.9005 30.6446 19.2275 30.8575 19.5893 30.9909C19.8827 31.105 20.3236 31.2407 21.1354 31.2776C22.0133 31.3177 22.2764 31.3261 24.4997 31.3261C26.7233 31.3261 26.9866 31.3177 27.8643 31.2776C28.6761 31.2407 29.1171 31.105 29.4104 30.9909C30.1366 30.7108 30.7105 30.1368 30.9906 29.4107C31.1046 29.1173 31.2402 28.6766 31.2774 27.8648C31.3174 26.9866 31.3258 26.7234 31.3258 24.5002C31.3258 22.2768 31.3174 22.0136 31.2774 21.1356C31.2404 20.3239 31.1048 19.8829 30.9906 19.5895ZM24.5 28.7755C22.1385 28.7755 20.2243 26.8614 20.2243 24.5C20.2243 22.1386 22.1385 20.2245 24.5 20.2245C26.8612 20.2245 28.7755 22.1386 28.7755 24.5C28.7755 26.8614 26.8612 28.7755 24.5 28.7755ZM28.9445 21.0546C28.3927 21.0546 27.9453 20.6073 27.9453 20.0555C27.9453 19.5037 28.3927 19.0563 28.9445 19.0563C29.4963 19.0563 29.9437 19.5037 29.9437 20.0555C29.9434 20.6073 29.4963 21.0546 28.9445 21.0546Z" fill="white"/>
<path d="M24.5 10C16.4931 10 10 16.4931 10 24.5C10 32.5069 16.4931 39 24.5 39C32.5069 39 39 32.5069 39 24.5C39 16.4931 32.5069 10 24.5 10ZM32.7759 27.9327C32.7357 28.8191 32.5947 29.4242 32.389 29.9539C31.9564 31.0723 31.0723 31.9564 29.9539 32.389C29.4244 32.5947 28.8191 32.7355 27.933 32.7759C27.0451 32.8164 26.7614 32.8262 24.5002 32.8262C22.2388 32.8262 21.9554 32.8164 21.0673 32.7759C20.1812 32.7355 19.5758 32.5947 19.0463 32.389C18.4906 32.1799 17.9874 31.8522 17.5715 31.4285C17.148 31.0128 16.8203 30.5094 16.6112 29.9539C16.4055 29.4244 16.2645 28.8191 16.2243 27.933C16.1833 27.0448 16.1738 26.7612 16.1738 24.5C16.1738 22.2388 16.1833 21.9552 16.2241 21.0673C16.2643 20.1809 16.405 19.5758 16.6108 19.0461C16.8199 18.4906 17.1478 17.9872 17.5715 17.5715C17.9872 17.1478 18.4906 16.8201 19.0461 16.611C19.5758 16.4053 20.1809 16.2645 21.0673 16.2241C21.9552 16.1836 22.2388 16.1738 24.5 16.1738C26.7612 16.1738 27.0448 16.1836 27.9327 16.2243C28.8191 16.2645 29.4242 16.4053 29.9539 16.6108C30.5094 16.8199 31.0128 17.1478 31.4287 17.5715C31.8522 17.9874 32.1801 18.4906 32.389 19.0461C32.595 19.5758 32.7357 20.1809 32.7762 21.0673C32.8167 21.9552 32.8262 22.2388 32.8262 24.5C32.8262 26.7612 32.8167 27.0448 32.7759 27.9327Z" fill="white"/>
</svg>
