<svg width="74" height="52" viewBox="0 0 74 52" fill="none" xmlns="http://www.w3.org/2000/svg">
<g opacity="0.5">
<rect width="74" height="52" rx="26" transform="matrix(-1 0 0 1 74 0)" fill="#345F4C"/>
<path d="M25.2929 26.7071C24.9024 26.3166 24.9024 25.6834 25.2929 25.2929L31.6569 18.9289C32.0474 18.5384 32.6805 18.5384 33.0711 18.9289C33.4616 19.3195 33.4616 19.9526 33.0711 20.3431L27.4142 26L33.0711 31.6569C33.4616 32.0474 33.4616 32.6805 33.0711 33.0711C32.6805 33.4616 32.0474 33.4616 31.6569 33.0711L25.2929 26.7071ZM49 27L26 27L26 25L49 25L49 27Z" fill="white"/>
</g>
</svg>
